<svg width="26" height="26" viewBox="0 0 26 26" fill="none" xmlns="http://www.w3.org/2000/svg">
<path d="M13 1C10.6266 1 8.30655 1.70379 6.33316 3.02236C4.35977 4.34094 2.8217 6.21508 1.91345 8.4078C1.0052 10.6005 0.767559 13.0133 1.23058 15.3411C1.6936 17.6689 2.83649 19.807 4.51472 21.4853C6.19295 23.1635 8.33115 24.3064 10.6589 24.7694C12.9867 25.2324 15.3995 24.9948 17.5922 24.0866C19.7849 23.1783 21.6591 21.6402 22.9776 19.6668C24.2962 17.6934 25 15.3734 25 13C24.9965 9.81847 23.7311 6.76824 21.4814 4.51856C19.2318 2.26888 16.1815 1.00348 13 1ZM13 23.3562C10.9517 23.3562 8.94949 22.7488 7.24643 21.6108C5.54337 20.4729 4.21599 18.8555 3.43216 16.9631C2.64832 15.0708 2.44324 12.9885 2.84283 10.9796C3.24243 8.97071 4.22876 7.12542 5.67709 5.67709C7.12543 4.22875 8.97072 3.24242 10.9796 2.84283C12.9885 2.44323 15.0708 2.64832 16.9631 3.43215C18.8555 4.21598 20.4729 5.54336 21.6108 7.24642C22.7488 8.94948 23.3562 10.9517 23.3562 13C23.353 15.7457 22.2609 18.378 20.3195 20.3195C18.378 22.2609 15.7457 23.353 13 23.3562Z" fill="black"/>
<path d="M13.6299 17.7803C13.4107 17.656 13.1625 17.5921 12.9106 17.5949C12.6622 17.5928 12.418 17.6587 12.2044 17.7855C11.9948 17.9069 11.8224 18.0834 11.706 18.2958C11.5845 18.5158 11.5224 18.7638 11.5258 19.0151C11.5228 19.2616 11.5879 19.5042 11.7139 19.7161C11.8366 19.9245 12.0122 20.0969 12.2228 20.2158C12.4372 20.3388 12.6805 20.4023 12.9277 20.3999C13.1765 20.402 13.4214 20.3385 13.6378 20.2158C13.8508 20.097 14.0269 19.9218 14.1468 19.7095C14.2695 19.4926 14.333 19.2472 14.3309 18.998C14.3337 18.7509 14.2702 18.5075 14.1469 18.2933C14.0236 18.0791 13.8451 17.9019 13.6299 17.7803ZM14.9818 7.26762C14.3966 6.99034 13.7554 6.85131 13.1079 6.86126C12.4048 6.84864 11.7101 7.01518 11.0892 7.34521C10.5306 7.64141 10.0632 8.08423 9.73734 8.62609C9.42295 9.14653 9.2578 9.74343 9.25997 10.3515H11.1839C11.1749 10.0445 11.2578 9.74176 11.4219 9.48219C11.5893 9.22027 11.8236 9.0078 12.1005 8.86674C12.3889 8.72276 12.7061 8.64595 13.0284 8.64208C13.3506 8.63821 13.6696 8.70737 13.9613 8.84439C14.2287 8.96884 14.4564 9.16505 14.6189 9.41118C14.7775 9.65228 14.8604 9.93531 14.8569 10.2239C14.8593 10.4526 14.8056 10.6783 14.7004 10.8814C14.598 11.0768 14.4648 11.2545 14.3059 11.4075C14.0967 11.6033 13.8809 11.7919 13.6589 11.9729C13.3551 12.2106 13.067 12.4676 12.7962 12.7422C12.5591 12.9951 12.3673 13.2869 12.2294 13.6049C12.0658 13.9864 11.986 14.3985 11.9953 14.8135V15.8208H13.8745V14.778C13.8709 14.5138 13.9295 14.2526 14.0455 14.0152C14.1543 13.7935 14.2967 13.5899 14.4676 13.4116C14.636 13.238 14.8622 13.0171 15.1686 12.7633C15.4602 12.523 15.7381 12.2666 16.001 11.9953C16.2244 11.7541 16.4065 11.4777 16.5402 11.1773C16.6936 10.825 16.7685 10.4436 16.7598 10.0595C16.7704 9.47092 16.6061 8.89242 16.2877 8.39726C15.9653 7.90711 15.5133 7.51605 14.9818 7.26762Z" fill="black"/>
</svg>
