<svg width="26" height="26" viewBox="0 0 26 26" fill="none" xmlns="http://www.w3.org/2000/svg">
<path fill-rule="evenodd" clip-rule="evenodd" d="M1.9225 4C1.67784 4 1.4432 4.09719 1.27019 4.27019C1.09719 4.4432 1 4.67784 1 4.9225V20.8855C1 21.3955 1.414 21.8095 1.9225 21.8095H24.0775C24.5875 21.8095 25 21.3955 25 20.8855V4.9225C25 4.67784 24.9028 4.4432 24.7298 4.27019C24.5568 4.09719 24.3222 4 24.0775 4H1.9225ZM23.155 6.895V5.845H2.8465V6.895L10.54 12.886C11.243 13.4338 12.1087 13.7314 13 13.7314C13.8913 13.7314 14.757 13.4338 15.46 12.886L23.155 6.895ZM2.8465 9.235V19.963H23.1535V9.235L16.5955 14.3395C15.5682 15.1406 14.3027 15.5757 13 15.5757C11.6973 15.5757 10.4318 15.1406 9.4045 14.3395L2.8465 9.235Z" fill="black"/>
</svg>
