<svg width="26" height="26" viewBox="0 0 26 26" fill="none" xmlns="http://www.w3.org/2000/svg">
<path d="M13 1C6.376 1 1 6.376 1 13C1 19.624 6.376 25 13 25C19.624 25 25 19.624 25 13C25 6.376 19.624 1 13 1ZM7.42 20.8C8.992 19.672 10.912 19 13 19C15.088 19 17.008 19.672 18.58 20.8C17.008 21.928 15.088 22.6 13 22.6C10.912 22.6 8.992 21.928 7.42 20.8ZM20.368 19.144C18.2661 17.4949 15.6717 16.5986 13 16.5986C10.3283 16.5986 7.73393 17.4949 5.632 19.144C4.18831 17.4224 3.39796 15.2468 3.4 13C3.4 7.696 7.696 3.4 13 3.4C18.304 3.4 22.6 7.696 22.6 13C22.6 15.34 21.76 17.476 20.368 19.144Z" fill="black"/>
<path d="M13 5.80005C10.684 5.80005 8.80005 7.68405 8.80005 10C8.80005 12.316 10.684 14.2 13 14.2C15.316 14.2 17.2 12.316 17.2 10C17.2 7.68405 15.316 5.80005 13 5.80005ZM13 11.8C12.004 11.8 11.2 10.996 11.2 10C11.2 9.00405 12.004 8.20005 13 8.20005C13.996 8.20005 14.8 9.00405 14.8 10C14.8 10.996 13.996 11.8 13 11.8Z" fill="black"/>
</svg>
