<svg class="_1Nz3L7ke0ZMkZnp0jGbvgo B7vXBMT3t4cMzWObWg-fY" viewBox="0 0 17 16" xmlns="http://www.w3.org/2000/svg">
    <g fill="inherit">
        <path d="M8.75 5.838a.865.865 0 0 1-.796-1.194.804.804 0 0 1 .182-.285.865.865 0 0 1 1.228 0c.08.081.142.178.182.285a.865.865 0 0 1-.796 1.194zM8.75 11.892a.865.865 0 0 1-.865-.865V8a.865.865 0 1 1 1.73 0v3.027a.865.865 0 0 1-.865.865z"/>
        <path clip-rule="evenodd" d="M4.305 14.652A8 8 0 0 0 8.75 16a8.009 8.009 0 0 0 8-8 8 8 0 1 0-12.445 6.652zm.721-12.225a6.703 6.703 0 0 1 3.724-1.13A6.711 6.711 0 0 1 15.453 8 6.703 6.703 0 1 1 5.026 2.427z" fill-rule="evenodd"/>
    </g>
</svg>
