<svg width="25" height="25" xmlns="http://www.w3.org/2000/svg" class="_1SyB2eQl43tBegX9oq9mOk">

 <g>
  <title>Layer 1</title>
  <path stroke="null" id="svg_4" fill-rule="evenodd" fill="inherit" d="m10.59099,0.02487a10.56602,10.56602 0 1 0 6.76065,18.68584l6.00822,6.00662a0.96055,0.96055 0 0 0 1.35757,-1.35757l-6.00662,-6.00823a10.56602,10.56602 0 0 0 -8.11982,-17.32666zm-8.64493,10.56601a8.64492,8.64492 0 1 1 17.28985,0a8.64492,8.64492 0 0 1 -17.28985,0z" clip-rule="evenodd"/>
  <path stroke="null" id="svg_3" fill-rule="evenodd" fill="inherit" d="m10.59099,0.02487a10.56602,10.56602 0 1 0 6.76065,18.68584l6.00822,6.00662a0.96055,0.96055 0 0 0 1.35757,-1.35757l-6.00662,-6.00823a10.56602,10.56602 0 0 0 -8.11982,-17.32666zm-8.64493,10.56601a8.64492,8.64492 0 1 1 17.28985,0a8.64492,8.64492 0 0 1 -17.28985,0z" clip-rule="evenodd"/>
  <path stroke="null" id="svg_5" fill-rule="evenodd" fill="inherit" d="m10.56622,0a10.56602,10.56602 0 1 0 6.76065,18.68584l6.00823,6.00662a0.96055,0.96055 0 0 0 1.35757,-1.35757l-6.00662,-6.00822a10.56602,10.56602 0 0 0 -8.11983,-17.32667zm-8.64492,10.56602a8.64492,8.64492 0 1 1 17.28985,0a8.64492,8.64492 0 0 1 -17.28985,0z" clip-rule="evenodd"/>
  <path stroke="null" id="svg_1" fill-rule="evenodd" fill="inherit" d="m10.56622,0a10.56602,10.56602 0 1 0 6.76065,18.68584l6.00822,6.00662a0.96055,0.96055 0 0 0 1.35757,-1.35757l-6.00662,-6.00822a10.56602,10.56602 0 0 0 -8.11983,-17.32667zm-8.64492,10.56602a8.64492,8.64492 0 1 1 17.28985,0a8.64492,8.64492 0 0 1 -17.28985,0z" clip-rule="evenodd"/>
 </g>
</svg>