<svg class="_1Nz3L7ke0ZMkZnp0jGbvgo iHf9m0Zyz4ZBGJMe77bsq" viewBox="0 0 17 16" xmlns="http://www.w3.org/2000/svg">
    <g clip-rule="evenodd" fill="inherit" fill-rule="evenodd">
        <path d="M8.169 4.948a3.052 3.052 0 1 0 0 6.103 3.052 3.052 0 0 0 0-6.103zM6.338 8A1.83 1.83 0 1 1 10 8a1.83 1.83 0 0 1-3.662 0z"/>
        <path d="M8.169 0a1.798 1.798 0 0 0-1.735 1.325L6.092 2.5a5.899 5.899 0 0 0-.347.146l-1.07-.599a1.806 1.806 0 0 0-2.459 2.457l.6 1.07c-.052.112-.1.226-.146.34l-1.178.35a1.798 1.798 0 0 0 .002 3.47l1.175.342a5.908 5.908 0 0 0 .148.348l-.6 1.078a1.807 1.807 0 0 0 2.457 2.457l1.072-.606c.111.052.224.1.339.145l.35 1.178a1.798 1.798 0 0 0 3.469-.002l.342-1.176c.117-.045.233-.094.348-.147l1.078.6a1.806 1.806 0 0 0 2.457-2.457l-.606-1.072c.051-.111.1-.225.144-.34l1.179-.349a1.798 1.798 0 0 0-.002-3.469l-1.176-.342a5.976 5.976 0 0 0-.147-.348l.6-1.078a1.806 1.806 0 0 0-2.458-2.458l-1.071.607a5.913 5.913 0 0 0-.34-.145l-.349-1.178A1.798 1.798 0 0 0 8.17 0zm-.352 1.34a.578.578 0 0 1 .91.308l.004.016.44 1.48a.61.61 0 0 0 .394.407c.261.086.514.194.756.324a.61.61 0 0 0 .59-.007l1.349-.764a.586.586 0 0 1 .795.799l-.757 1.359a.61.61 0 0 0-.005.584c.13.244.239.5.324.763a.61.61 0 0 0 .41.398l1.481.431.012.004a.578.578 0 0 1 0 1.116l-.015.004-1.48.44a.61.61 0 0 0-.407.394 4.68 4.68 0 0 1-.324.756.61.61 0 0 0 .006.59l.764 1.349a.586.586 0 0 1-.798.795l-1.359-.757a.61.61 0 0 0-.584-.005c-.245.13-.5.239-.763.324a.61.61 0 0 0-.398.41L8.73 14.34l-.003.012a.578.578 0 0 1-1.116 0l-.004-.015-.44-1.48a.61.61 0 0 0-.395-.407 4.697 4.697 0 0 1-.756-.324.61.61 0 0 0-.59.007l-1.347.763h-.001a.586.586 0 0 1-.795-.798l.756-1.359a.61.61 0 0 0 .006-.584c-.13-.244-.24-.5-.324-.763a.61.61 0 0 0-.41-.398L1.83 8.56l-.013-.003a.578.578 0 0 1 0-1.116l.016-.004 1.48-.44a.61.61 0 0 0 .407-.395c.085-.26.194-.514.324-.756a.61.61 0 0 0-.005-.587l-.757-1.35a.586.586 0 0 1 .797-.797l1.35.757a.61.61 0 0 0 .586.006c.244-.13.5-.24.763-.324a.61.61 0 0 0 .398-.41l.431-1.481.004-.013a.578.578 0 0 1 .206-.308z"/>
    </g>
</svg>
