<svg width="26" height="26" viewBox="0 0 26 26" fill="none" xmlns="http://www.w3.org/2000/svg">
<path d="M23.5354 16.6062L23.0677 16.1262C22.7477 15.7938 22.4523 15.4615 22.1815 15.1292C21.9477 14.8338 21.7385 14.5631 21.5662 14.3169C21.3323 13.9723 21.2338 13.7631 21.1969 13.6769C21.16 13.5662 21.0123 13.1231 20.9138 11.9169C20.8523 11.1538 20.8277 10.2923 20.84 9.45538V9.14769C20.8277 4.65538 17.1477 1 12.6185 1C8.08923 1 4.40923 4.66769 4.40923 9.17231V9.44308C4.42154 10.3046 4.39692 11.1662 4.33538 11.9169C4.23692 13.1108 4.10154 13.5662 4.05231 13.6646C4.01538 13.7631 3.91692 13.96 3.68308 14.3046C3.51077 14.5508 3.31385 14.8215 3.06769 15.1169C2.80923 15.4615 2.51385 15.7938 2.19385 16.1262L1.89846 16.4338L1.75077 16.5815C1.27077 17.0369 1 17.6646 1 18.3169V19.2769C1 20.3354 1.86154 21.1846 2.92 21.1846H7.97846C8.40923 23.3508 10.3292 25 12.6308 25C14.9323 25 16.8523 23.3631 17.2831 21.1846H22.3415C23.4 21.1846 24.2615 20.3231 24.2615 19.2769V18.3169C24.2492 17.6523 23.9785 17.0123 23.5354 16.6062ZM12.6308 23.1538C11.3631 23.1538 10.2923 22.3292 9.89846 21.1846H15.3631C14.9692 22.3292 13.8985 23.1538 12.6308 23.1538ZM22.3292 19.3385L2.85846 19.2769V18.3169C2.85846 18.1692 2.92 18.0215 3.06769 17.8862L3.53538 17.4185C3.88 17.0492 4.21231 16.68 4.50769 16.3231C4.79077 15.9785 5.02461 15.6585 5.23385 15.3631C5.48 14.9938 5.66462 14.6492 5.78769 14.3662C5.97231 13.8862 6.10769 13.1231 6.19385 12.0769C6.25538 11.2646 6.28 10.3538 6.26769 9.40615V9.18462C6.26769 5.68923 9.13538 2.84615 12.6431 2.84615C16.1508 2.84615 19.0185 5.67692 19.0185 9.14769V9.40615C19.0062 10.3292 19.0308 11.2523 19.0923 12.0646C19.1785 13.0985 19.3015 13.8738 19.4985 14.3538C19.6092 14.6492 19.7938 14.9815 20.0523 15.3508C20.2492 15.6462 20.4954 15.9662 20.7785 16.3108C21.0738 16.6677 21.4062 17.0369 21.7508 17.4062L22.2554 17.9108C22.3662 18.0215 22.4277 18.1569 22.4277 18.3169L22.3292 19.3385Z" fill="black"/>
</svg>
