<svg class="_1Nz3L7ke0ZMkZnp0jGbvgo _1jqbOCVCvcGqvPo8tuod7M" data-name="icons final" viewBox="0 0 20 20" xmlns="http://www.w3.org/2000/svg">
    <path d="M10 .875A9.125 9.125 0 1 0 19.125 10 9.135 9.135 0 0 0 10 .875Zm0 17A7.875 7.875 0 1 1 17.875 10 7.884 7.884 0 0 1 10 17.875Z"/>
    <path d="M10.479 13.635a1.085 1.085 0 0 0-.547-.141 1.035 1.035 0 0 0-.537.145 1.009 1.009 0 0 0-.379.388 1.1 1.1 0 0 0-.137.547 1.018 1.018 0 0 0 .143.533 1.045 1.045 0 0 0 .387.38 1.056 1.056 0 0 0 .536.14 1.076 1.076 0 0 0 .54-.14 1.008 1.008 0 0 0 .387-.385 1.08 1.08 0 0 0 .14-.541 1.05 1.05 0 0 0-.533-.926ZM11.507 5.641a3.213 3.213 0 0 0-1.425-.309 3.15 3.15 0 0 0-1.535.368 2.646 2.646 0 0 0-1.028.974 2.52 2.52 0 0 0-.363 1.312h1.463a1.172 1.172 0 0 1 .181-.661 1.327 1.327 0 0 1 .516-.468 1.623 1.623 0 0 1 1.415-.017 1.212 1.212 0 0 1 .5.431 1.1 1.1 0 0 1 .181.618 1.063 1.063 0 0 1-.119.5 1.56 1.56 0 0 1-.3.4 9.531 9.531 0 0 1-.492.43 6.846 6.846 0 0 0-.656.585 2.292 2.292 0 0 0-.431.656 2.206 2.206 0 0 0-.178.919v.766h1.429v-.793a1.281 1.281 0 0 1 .13-.58 1.824 1.824 0 0 1 .321-.459c.128-.132.3-.3.533-.493a7.691 7.691 0 0 0 .633-.584 2.279 2.279 0 0 0 .41-.622 2.015 2.015 0 0 0 .167-.85A2.262 2.262 0 0 0 12.5 6.5a2.41 2.41 0 0 0-.993-.859Z"/>
</svg>
