<svg width="26" height="26" viewBox="0 0 26 26" fill="none" xmlns="http://www.w3.org/2000/svg">
<path d="M19.6288 12.1116L22.7744 15.2571M6.93227 22.7629H1V2H20.2799V6.4492M5.4492 7.93227H15.8307M5.4492 12.3815H13.6061M5.4492 16.8307H9.15687M24.3479 10.538C24.5546 10.7446 24.7186 10.9899 24.8305 11.2599C24.9424 11.5299 25 11.8193 25 12.1116C25 12.4038 24.9424 12.6932 24.8305 12.9632C24.7186 13.2332 24.5546 13.4785 24.3479 13.6851L15.8529 22.1786L11.7656 23.1248L12.7073 19.0315L21.2009 10.538C21.4074 10.3313 21.6528 10.1673 21.9227 10.0554C22.1927 9.94353 22.4821 9.88594 22.7744 9.88594C23.0666 9.88594 23.356 9.94353 23.626 10.0554C23.896 10.1673 24.1413 10.3313 24.3479 10.538Z" stroke="black" stroke-width="1.5" stroke-linecap="round" stroke-linejoin="round"/>
</svg>
