<svg width="26" height="26" viewBox="0 0 26 26" fill="none" xmlns="http://www.w3.org/2000/svg">
<path fill-rule="evenodd" clip-rule="evenodd" d="M13.0038 8.42226C12.3957 8.41125 11.7915 8.52151 11.2265 8.74661C10.6615 8.9717 10.1471 9.30712 9.71312 9.73326C9.27919 10.1594 8.93452 10.6677 8.69924 11.2286C8.46395 11.7894 8.34277 12.3915 8.34277 12.9997C8.34277 13.6079 8.46395 14.21 8.69924 14.7708C8.93452 15.3316 9.27919 15.84 9.71312 16.2661C10.1471 16.6923 10.6615 17.0277 11.2265 17.2528C11.7915 17.4779 12.3957 17.5881 13.0038 17.5771C14.2035 17.5554 15.3467 17.0636 16.1874 16.2075C17.0281 15.3514 17.4991 14.1995 17.4991 12.9997C17.4991 11.7998 17.0281 10.6479 16.1874 9.79186C15.3467 8.93579 14.2035 8.44398 13.0038 8.42226ZM10.2572 13.0004C10.2572 12.272 10.5466 11.5734 11.0617 11.0583C11.5768 10.5432 12.2754 10.2538 13.0038 10.2538C13.7323 10.2538 14.4309 10.5432 14.946 11.0583C15.461 11.5734 15.7504 12.272 15.7504 13.0004C15.7504 13.7289 15.461 14.4275 14.946 14.9426C14.4309 15.4577 13.7323 15.747 13.0038 15.747C12.2754 15.747 11.5768 15.4577 11.0617 14.9426C10.5466 14.4275 10.2572 13.7289 10.2572 13.0004Z" fill="black"/>
<path fill-rule="evenodd" clip-rule="evenodd" d="M13.0038 1C12.412 0.999891 11.8366 1.19441 11.3663 1.55359C10.896 1.91276 10.5569 2.41664 10.4012 2.98758L9.88817 4.75014C9.71238 4.81759 9.53878 4.89063 9.36765 4.96915L7.76259 4.07062C7.2477 3.78217 6.65271 3.66974 6.06807 3.75044C5.48344 3.83114 4.94115 4.10055 4.52366 4.5177C4.10617 4.93485 3.83632 5.47692 3.75515 6.06149C3.67397 6.64605 3.78591 7.24114 4.07395 7.75626L4.97398 9.36132C4.89598 9.52933 4.82398 9.70034 4.75497 9.87134L2.9879 10.3964C2.41672 10.552 1.91262 10.8913 1.55337 11.3619C1.19411 11.8324 0.999659 12.4081 1 13.0001C1.00034 13.5921 1.19546 14.1676 1.55526 14.6377C1.91505 15.1079 2.41954 15.4466 2.9909 15.6016L4.75347 16.1146C4.82189 16.2909 4.89593 16.465 4.97548 16.6366L4.07545 18.2537C3.78955 18.7686 3.67912 19.3625 3.76088 19.9458C3.84263 20.529 4.11211 21.0698 4.52855 21.4862C4.94499 21.9026 5.48574 22.1721 6.06897 22.2539C6.65221 22.3356 7.2462 22.2252 7.76109 21.9393L9.36915 21.0303C9.53566 21.1083 9.70516 21.1803 9.87767 21.2478L10.4027 23.0148C10.5588 23.5854 10.8982 24.0888 11.3686 24.4475C11.8389 24.8062 12.4142 25.0003 13.0057 25C13.5972 24.9997 14.1722 24.8049 14.6422 24.4456C15.1121 24.0864 15.4509 23.5826 15.6064 23.0118L16.1194 21.2478C16.2949 21.1803 16.4689 21.1068 16.6414 21.0273L18.2585 21.9273C18.7733 22.2145 19.3678 22.3259 19.9517 22.2446C20.5356 22.1634 21.077 21.8939 21.4938 21.477C21.9107 21.0602 22.1802 20.5187 22.2615 19.9348C22.3427 19.351 22.2313 18.7565 21.9441 18.2417L21.0351 16.6336C21.1116 16.4671 21.1851 16.2961 21.2511 16.1236L23.0197 15.6001C23.5902 15.4439 24.0936 15.1045 24.4523 14.6342C24.811 14.1638 25.0052 13.5886 25.0048 12.9971C25.0045 12.4055 24.8097 11.8305 24.4504 11.3606C24.0912 10.8907 23.5874 10.5518 23.0167 10.3964L21.2526 9.88334C21.1846 9.70706 21.1111 9.53296 21.0321 9.36132L21.9321 7.74426C22.2204 7.22926 22.3326 6.63422 22.2516 6.04962C22.1707 5.46501 21.9011 4.92283 21.4837 4.50551C21.0664 4.08819 20.5242 3.81857 19.9396 3.73763C19.355 3.65669 18.76 3.76888 18.245 4.05712L16.6384 4.96765C16.4707 4.88985 16.3006 4.81731 16.1284 4.75014L15.6049 2.98308C15.4485 2.41348 15.1095 1.91096 14.6398 1.55271C14.1702 1.19446 13.596 1.00028 13.0053 1H13.0038ZM12.4758 3.01008C12.5888 2.92332 12.7215 2.86576 12.862 2.84248C13.0026 2.8192 13.1467 2.83091 13.2817 2.87659C13.4166 2.92227 13.5382 3.0005 13.6358 3.10437C13.7333 3.20823 13.8037 3.33453 13.8408 3.4721L13.8468 3.4961L14.5068 5.71618C14.5486 5.85816 14.6243 5.98787 14.7272 6.09421C14.8301 6.20054 14.9573 6.28032 15.0979 6.32671C15.4894 6.45571 15.8689 6.61772 16.2319 6.81272C16.3683 6.88598 16.521 6.92344 16.6758 6.9216C16.8306 6.91976 16.9824 6.87869 17.1169 6.80222L19.1405 5.65618C19.3078 5.56366 19.5006 5.52817 19.6898 5.55509C19.8791 5.58201 20.0544 5.66987 20.1892 5.80535C20.324 5.94084 20.4109 6.11657 20.4369 6.30593C20.4629 6.49529 20.4264 6.68795 20.3331 6.85473L19.1975 8.8933C19.1231 9.02705 19.0834 9.17732 19.0821 9.33037C19.0808 9.48341 19.1179 9.63434 19.19 9.76934C19.385 10.1354 19.5485 10.5194 19.676 10.9139C19.722 11.056 19.8021 11.1848 19.9093 11.2889C20.0165 11.3929 20.1476 11.4692 20.2911 11.5109L22.5127 12.1574L22.5307 12.1634C22.7146 12.2131 22.8771 12.322 22.993 12.4733C23.1088 12.6246 23.1716 12.8099 23.1716 13.0005C23.1716 13.191 23.1088 13.3763 22.993 13.5276C22.8771 13.6789 22.7146 13.7878 22.5307 13.8375L22.5082 13.8435L20.2881 14.5035C20.1461 14.5453 20.0164 14.6209 19.91 14.7239C19.8037 14.8268 19.7239 14.954 19.6775 15.0945C19.5491 15.4861 19.3865 15.8656 19.1915 16.2286C19.118 16.3648 19.0803 16.5175 19.0819 16.6723C19.0835 16.827 19.1243 16.9789 19.2005 17.1136L20.3466 19.1372C20.4387 19.3043 20.4739 19.4968 20.4469 19.6857C20.42 19.8746 20.3323 20.0496 20.1971 20.1842C20.062 20.3189 19.8866 20.4059 19.6977 20.4322C19.5087 20.4584 19.3163 20.4225 19.1495 20.3297L17.1109 19.1942C16.9772 19.1198 16.8269 19.0801 16.6739 19.0788C16.5208 19.0775 16.3699 19.1146 16.2349 19.1867C15.8674 19.3817 15.4849 19.5452 15.0904 19.6727C14.9482 19.7187 14.8195 19.7988 14.7154 19.906C14.6113 20.0132 14.5351 20.1443 14.4933 20.2877L13.8453 22.5108L13.8408 22.5288C13.7911 22.7128 13.6822 22.8753 13.5309 22.9911C13.3796 23.107 13.1944 23.1698 13.0038 23.1698C12.8132 23.1698 12.628 23.107 12.4767 22.9911C12.3254 22.8753 12.2165 22.7128 12.1668 22.5288L12.1608 22.5063L11.5007 20.2862C11.4588 20.1441 11.383 20.0143 11.2797 19.9079C11.1765 19.8016 11.049 19.7219 10.9082 19.6757C10.5167 19.5472 10.1372 19.3846 9.77417 19.1897C9.6378 19.1164 9.48508 19.079 9.3303 19.0808C9.17551 19.0827 9.02372 19.1237 8.88913 19.2002L6.86855 20.3447C6.70145 20.4368 6.50743 20.4721 6.31854 20.4451C6.12966 20.4181 5.95468 20.3305 5.82002 20.1953C5.68536 20.0601 5.59833 19.8848 5.57208 19.6958C5.54583 19.5068 5.58178 19.3145 5.67451 19.1477L6.80855 17.1091C6.8832 16.9755 6.92313 16.8253 6.92471 16.6723C6.92628 16.5192 6.88944 16.3682 6.81755 16.2331C6.62254 15.8671 6.45754 15.4831 6.33153 15.0885C6.28555 14.9464 6.20546 14.8176 6.09825 14.7136C5.99104 14.6095 5.85998 14.5333 5.71651 14.4915L3.49492 13.8405L3.47542 13.836C3.29145 13.7863 3.12898 13.6774 3.01313 13.5261C2.89728 13.3748 2.8345 13.1895 2.8345 12.999C2.8345 12.8084 2.89728 12.6231 3.01313 12.4718C3.12898 12.3205 3.29145 12.2116 3.47542 12.1619L3.49942 12.1559L5.71951 11.4959C5.86165 11.454 5.99147 11.3781 6.09782 11.2749C6.20417 11.1717 6.28386 11.0442 6.33003 10.9034C6.45754 10.5134 6.62104 10.1324 6.81605 9.76934C6.88896 9.63378 6.9265 9.48202 6.92519 9.32811C6.92387 9.1742 6.88376 9.0231 6.80855 8.8888L5.67301 6.86373C5.58007 6.69672 5.5441 6.50396 5.57055 6.31468C5.59699 6.12539 5.68441 5.94987 5.81956 5.81473C5.9547 5.67958 6.13022 5.59216 6.3195 5.56572C6.50879 5.53927 6.70154 5.57525 6.86855 5.66818L8.89363 6.80372C9.02762 6.8789 9.17837 6.91913 9.332 6.9207C9.48562 6.92227 9.63717 6.88514 9.77267 6.81272C10.1387 6.61772 10.5227 6.45271 10.9172 6.32671C11.0594 6.28073 11.1881 6.20063 11.2922 6.09342C11.3963 5.98621 11.4725 5.85515 11.5142 5.71168L12.1608 3.4901L12.1668 3.4706C12.2163 3.28685 12.3249 3.1245 12.4758 3.00858V3.01008Z" fill="black"/>
</svg>
