<svg width="26" height="26" viewBox="0 0 26 26" fill="none" xmlns="http://www.w3.org/2000/svg">
<g clip-path="url(#clip0_1_22)">
<path fill-rule="evenodd" clip-rule="evenodd" d="M11.1214 1C5.60064 1 1 5.60064 1 11.1214C1 16.6422 5.60064 21.2428 11.1214 21.2428C13.4217 21.2428 15.722 20.476 17.5623 18.9425L23.3898 24.77C23.6965 25.0767 24.3099 25.0767 24.6166 24.77C24.9233 24.4633 24.9233 23.8498 24.6166 23.5431L18.9425 17.5623C22.4696 13.2684 22.0096 6.82748 17.7157 3.30032C15.722 1.76678 13.4217 1 11.1214 1ZM2.84026 11.1214C2.84026 6.52077 6.52077 2.84026 11.1214 2.84026C15.722 2.84026 19.4026 6.52077 19.4026 11.1214C19.4026 15.722 15.722 19.4026 11.1214 19.4026C6.52077 19.4026 2.84026 15.722 2.84026 11.1214Z" fill="black" stroke="black"/>
</g>
<defs>
<clipPath id="clip0_1_22">
<rect width="26" height="26" fill="white"/>
</clipPath>
</defs>
</svg>
