<svg width="26" height="26" viewBox="0 0 26 26" fill="none" xmlns="http://www.w3.org/2000/svg">
<path d="M13 3.85C13.4137 3.85 13.8233 3.93148 14.2055 4.08978C14.5876 4.24808 14.9349 4.48011 15.2274 4.77261C15.5199 5.06512 15.7519 5.41237 15.9102 5.79455C16.0685 6.17672 16.15 6.58634 16.15 7C16.15 7.41366 16.0685 7.82328 15.9102 8.20545C15.7519 8.58763 15.5199 8.93488 15.2274 9.22739C14.9349 9.51989 14.5876 9.75192 14.2055 9.91022C13.8233 10.0685 13.4137 10.15 13 10.15C12.1646 10.15 11.3634 9.81813 10.7726 9.22739C10.1819 8.63665 9.85 7.83543 9.85 7C9.85 6.16457 10.1819 5.36335 10.7726 4.77261C11.3634 4.18187 12.1646 3.85 13 3.85ZM13 17.35C17.455 17.35 22.15 19.54 22.15 20.5V22.15H3.85V20.5C3.85 19.54 8.545 17.35 13 17.35ZM13 1C9.685 1 7 3.685 7 7C7 10.315 9.685 13 13 13C16.315 13 19 10.315 19 7C19 3.685 16.315 1 13 1ZM13 14.5C8.995 14.5 1 16.51 1 20.5V25H25V20.5C25 16.51 17.005 14.5 13 14.5Z" fill="black"/>
</svg>
