<svg width="26" height="26" viewBox="0 0 26 26" fill="none" xmlns="http://www.w3.org/2000/svg">
<g clip-path="url(#clip0_1_9)">
<path d="M24.0202 14.2308H1.97979C1.48989 14.2308 1 13.7692 1 13C1 12.2308 1.4899 11.7692 1.97979 11.7692H24.0202C24.5101 11.7692 25 12.2308 25 13C25 13.7692 24.5101 14.2308 24.0202 14.2308ZM20.3472 3.46154H5.65279C5.16289 3.46154 4.67421 2.84615 4.67421 2.23077C4.67421 1.61539 5.16289 1 5.65279 1H20.3472C20.8371 1 21.327 1.46154 21.327 2.23077C21.327 3 20.8371 3.46154 20.3472 3.46154ZM20.3472 25H5.65279C5.16289 25 4.67421 24.5385 4.67421 23.7692C4.67421 23 5.04102 22.5385 5.65279 22.5385H20.3472C20.8371 22.5385 21.327 23 21.327 23.7692C21.327 24.5385 20.8371 25 20.3472 25Z" fill="black" stroke="black"/>
</g>
<defs>
<clipPath id="clip0_1_9">
<rect width="26" height="26" fill="white"/>
</clipPath>
</defs>
</svg>
