<svg width="24" height="24" fill="none" xmlns="http://www.w3.org/2000/svg">
    <path d="M18 21.25h-3.72c-.41 0-.75-.34-.75-.75v-3.99c0-.78-.63-1.41-1.41-1.41h-.1c-.73.04-1.31.66-1.31 1.41v3.99c0 .41-.34.75-.75.75H6c-.41 0-.75-.34-.75-.75v-7.75H2.5c-.31 0-.58-.19-.7-.47a.742.742 0 0 1 .19-.82l9.61-9c.29-.27.74-.27 1.03.01l9.39 9c.22.21.29.54.18.82-.11.28-.39.47-.7.47h-2.75v7.75c0 .4-.34.74-.75.74Zm-2.97-1.5h2.22V12c0-.41.34-.75.75-.75h1.63L12.1 4.03l-7.7 7.22H6c.41 0 .75.34.75.75v7.75H9.2v-3.24c0-1.54 1.21-2.82 2.75-2.91h.14c1.63 0 2.93 1.31 2.93 2.91v3.24h.01Z" fill="#666" class="icon_svg-fill_as_stroke"/>
</svg>
