<svg width="26" height="26" viewBox="0 0 26 26" fill="none" xmlns="http://www.w3.org/2000/svg">
<path fill-rule="evenodd" clip-rule="evenodd" d="M13.6443 1.01724C11.4741 0.900806 9.31291 1.3759 7.39157 2.39181C5.47023 3.40773 3.86083 4.92631 2.73515 6.78548C1.60948 8.64464 1.0098 10.7746 1.00012 12.948C0.990439 15.1213 1.57112 17.2565 2.68019 19.1256L1.67722 23.1478C1.64256 23.2729 1.6333 23.4037 1.64999 23.5324C1.66669 23.6611 1.70899 23.7852 1.7744 23.8973C1.83982 24.0094 1.92703 24.1073 2.03088 24.1852C2.13473 24.263 2.25312 24.3193 2.37907 24.3507C2.50502 24.3821 2.63598 24.3879 2.76422 24.3678C2.89247 24.3478 3.01539 24.3022 3.12575 24.2339C3.23612 24.1656 3.33168 24.0759 3.4068 23.97C3.48192 23.8642 3.53508 23.7443 3.56315 23.6176L4.66557 19.1977C4.69751 19.0692 4.70289 18.9356 4.68137 18.805C4.65985 18.6744 4.61188 18.5495 4.54041 18.4381C3.19992 16.3504 2.67845 13.8408 3.07627 11.3918C3.47409 8.94283 4.7631 6.72733 6.69551 5.17121C8.62793 3.61509 11.0673 2.82819 13.5448 2.96178C16.0223 3.09536 18.363 4.14 20.1168 5.89488C21.8707 7.64976 22.914 9.99102 23.0462 12.4686C23.1784 14.9461 22.3901 17.3851 20.8329 19.3166C19.2757 21.2482 17.0595 22.5359 14.6103 22.9323C12.1611 23.3288 9.65178 22.8059 7.56476 21.4642C7.45737 21.3941 7.33716 21.3459 7.21106 21.3224C7.08496 21.2989 6.95546 21.3007 6.83002 21.3275C6.70459 21.3543 6.5857 21.4056 6.4802 21.4786C6.37471 21.5516 6.2847 21.6447 6.21536 21.7526C6.14603 21.8605 6.09873 21.9811 6.0762 22.1074C6.05367 22.2336 6.05635 22.3631 6.08409 22.4883C6.11183 22.6136 6.16408 22.7321 6.23783 22.837C6.31157 22.942 6.40536 23.0313 6.51378 23.0998C8.05997 24.0927 9.8135 24.7173 11.6392 24.9254C13.4649 25.1336 15.314 24.9197 17.044 24.3003C18.774 23.6809 20.3387 22.6725 21.6174 21.3529C22.8961 20.0333 23.8547 18.4377 24.4194 16.6891C24.984 14.9404 25.1396 13.0855 24.8741 11.2673C24.6086 9.44902 23.9291 7.71601 22.8881 6.20184C21.847 4.68767 20.4722 3.43277 18.8695 2.53388C17.2669 1.63499 15.4792 1.11611 13.6443 1.01724ZM12.0722 13.9308C12.2839 14.1439 12.5632 14.2769 12.8622 14.3069C13.1611 14.3369 13.4613 14.2621 13.7112 14.0953C13.9772 13.9158 14.1671 13.644 14.2442 13.3326C14.3213 13.0211 14.2802 12.6921 14.1287 12.4092C13.9772 12.1263 13.7262 11.9097 13.4242 11.8012C13.1223 11.6927 12.7908 11.7001 12.4939 11.8219C12.3335 11.8803 12.1878 11.9732 12.0672 12.0941C11.9467 12.215 11.8541 12.3609 11.7961 12.5214C11.7298 12.6777 11.6949 12.8455 11.6932 13.0152C11.6932 13.3581 11.8287 13.6873 12.0704 13.9308H12.0722ZM18.1723 14.3114C17.9796 14.3134 17.7889 14.2725 17.614 14.1916C17.4392 14.1106 17.2846 13.9917 17.1614 13.8435C17.0383 13.6953 16.9498 13.5215 16.9023 13.3347C16.8548 13.148 16.8496 12.953 16.8869 12.764C16.9243 12.5749 17.0033 12.3966 17.1183 12.242C17.2333 12.0873 17.3812 11.9603 17.5515 11.87C17.7218 11.7798 17.91 11.7287 18.1025 11.7203C18.295 11.712 18.4869 11.7467 18.6644 11.8219C18.8238 11.8837 18.9695 11.9762 19.093 12.0945C19.2077 12.2208 19.2999 12.3657 19.3656 12.5232C19.4984 12.8391 19.5008 13.1947 19.3724 13.5124C19.3079 13.67 19.213 13.8133 19.093 13.9342C18.8447 14.1716 18.5158 14.3063 18.1723 14.3114ZM7.07956 14.0953C7.29444 14.2379 7.54694 14.3131 7.80479 14.3114C7.9974 14.3132 8.18799 14.272 8.36271 14.1909C8.53742 14.1098 8.69185 13.9908 8.81479 13.8425C8.93772 13.6942 9.02606 13.5204 9.07337 13.3337C9.12069 13.147 9.1258 12.952 9.08832 12.7631C9.05084 12.5742 8.97173 12.3959 8.85673 12.2414C8.74173 12.0869 8.59373 11.96 8.42351 11.8698C8.25329 11.7797 8.06511 11.7286 7.87267 11.7203C7.68023 11.712 7.48836 11.7467 7.31102 11.8219C7.15156 11.8836 7.00589 11.9763 6.8824 12.0945C6.74571 12.2301 6.64095 12.3945 6.57573 12.5756C6.51051 12.7568 6.48647 12.9502 6.50535 13.1418C6.52424 13.3334 6.58557 13.5184 6.68489 13.6834C6.78422 13.8483 6.91904 13.989 7.07956 14.0953Z" fill="black"/>
</svg>
