<svg class="_1Nz3L7ke0ZMkZnp0jGbvgo _2SUNUBTvSDHQ-Gtyl-AYAG" viewBox="0 0 14 15" xmlns="http://www.w3.org/2000/svg">
    <path clip-rule="evenodd" d="M7.375.74A7 7 0 0 0 .98 11.302l-.585 2.346a.567.567 0 1 0 1.1.274l.643-2.578a.567.567 0 0 0-.073-.443 5.866 5.866 0 1 1 1.764 1.765.567.567 0 1 0-.613.954A7 7 0 1 0 7.375.74zm-.917 7.532a.756.756 0 0 0 .956.096.756.756 0 0 0-.71-1.326.68.68 0 0 0-.407.408.756.756 0 0 0-.06.288c0 .2.079.392.22.534zm3.558.222a.756.756 0 1 1 .287-1.452c.093.036.178.09.25.159a.87.87 0 0 1 .159.25.757.757 0 0 1 .004.577.755.755 0 0 1-.163.246.794.794 0 0 1-.537.22zm-6.47-.126a.756.756 0 0 0 .423.126.756.756 0 1 0-.288-1.452.756.756 0 0 0-.25.159.756.756 0 0 0 .115 1.167z" fill="inherit" fill-rule="evenodd"/>
</svg>
