<svg width="26" height="26" viewBox="0 0 26 26" fill="none" xmlns="http://www.w3.org/2000/svg">
<path d="M13.0004 9.75645C12.7878 9.75548 12.5787 9.70227 12.3915 9.60152C12.2043 9.50077 12.0447 9.35557 11.9268 9.17867C11.8089 9.00178 11.7362 8.79862 11.7152 8.58706C11.6942 8.3755 11.7255 8.16202 11.8064 7.9654C11.8661 7.80515 11.9591 7.65942 12.0794 7.53788C12.2 7.41633 12.3435 7.31986 12.5016 7.25403C12.6596 7.18819 12.8292 7.1543 13.0004 7.1543C13.1717 7.1543 13.3412 7.18819 13.4993 7.25403C13.6574 7.31986 13.8008 7.41633 13.9215 7.53788C14.0415 7.65939 14.1345 7.80489 14.1945 7.9654C14.2753 8.16202 14.3066 8.3755 14.2856 8.58706C14.2647 8.79862 14.192 9.00178 14.0741 9.17867C13.9561 9.35557 13.7965 9.50077 13.6093 9.60152C13.4221 9.70227 13.213 9.75548 13.0004 9.75645ZM13.0004 18.8378C12.6563 18.8378 12.3263 18.7011 12.0829 18.4577C11.8396 18.2144 11.7029 17.8843 11.7029 17.5402V12.9996C11.7029 12.6554 11.8396 12.3254 12.0829 12.0821C12.3263 11.8387 12.6563 11.702 13.0004 11.702C13.3446 11.702 13.6746 11.8387 13.9179 12.0821C14.1613 12.3254 14.298 12.6554 14.298 12.9996V17.5402C14.298 17.8843 14.1613 18.2144 13.9179 18.4577C13.6746 18.7011 13.3446 18.8378 13.0004 18.8378Z" fill="black"/>
<path fill-rule="evenodd" clip-rule="evenodd" d="M6.33268 22.9779C8.30636 24.2965 10.6268 25.0002 13.0004 25C16.182 24.9964 19.2323 23.731 21.482 21.4812C23.7318 19.2315 24.9972 16.1812 25.0008 12.9996C25.0007 10.9264 24.4634 8.88868 23.4415 7.0849C22.4195 5.28112 20.9477 3.77286 19.1695 2.70711C17.3912 1.64135 15.3672 1.05445 13.2947 1.00361C11.2222 0.952768 9.17181 1.43971 7.34345 2.417C5.51509 3.39428 3.97109 4.82856 2.86192 6.58005C1.75276 8.33155 1.11627 10.3405 1.01448 12.4112C0.912684 14.4818 1.34906 16.5435 2.28109 18.3954C3.21311 20.2472 4.60899 21.826 6.33268 22.9779ZM7.41422 4.63982C9.06767 3.53479 11.0117 2.94491 13.0004 2.94476C15.6661 2.94794 18.2218 4.0083 20.1067 5.89326C21.9917 7.77822 23.0521 10.3339 23.0552 12.9996C23.0553 14.7367 22.6054 16.4442 21.7492 17.9557C20.893 19.4672 19.6599 20.7311 18.1699 21.6242C16.68 22.5173 14.9841 23.0092 13.2475 23.0519C11.5109 23.0946 9.79284 22.6866 8.26082 21.8678C6.72879 21.049 5.43503 19.8472 4.50565 18.3796C3.57626 16.912 3.04295 15.2286 2.95769 13.4936C2.87242 11.7586 3.23812 10.0311 4.01914 8.4794C4.80016 6.92775 5.96985 5.60492 7.41422 4.63982Z" fill="black"/>
</svg>
