<svg width="28" height="26" viewBox="0 0 28 26" fill="none" xmlns="http://www.w3.org/2000/svg">
<path d="M21.5379 25H16.8368C16.3186 25 15.889 24.5703 15.889 24.0522V19.0099C15.889 18.0242 15.0928 17.228 14.1071 17.228H13.9807C13.0582 17.2786 12.3252 18.0621 12.3252 19.0099V24.0522C12.3252 24.5703 11.8955 25 11.3774 25H6.37301C5.85487 25 5.4252 24.5703 5.4252 24.0522V14.2582H1.94992C1.55816 14.2582 1.21695 14.0181 1.0653 13.6643C0.995658 13.4875 0.981325 13.2938 1.0242 13.1088C1.06708 12.9237 1.16514 12.7561 1.30542 12.628L13.4499 1.25435C13.8164 0.913139 14.3851 0.913139 14.7516 1.26699L26.6181 12.6406C26.8961 12.906 26.9846 13.3231 26.8456 13.6769C26.7066 14.0307 26.3527 14.2709 25.961 14.2709H22.4857V24.0648C22.4857 24.5703 22.056 25 21.5379 25ZM17.7846 23.1044H20.5901V13.3104C20.5901 12.7923 21.0197 12.3626 21.5379 12.3626H23.5978L14.0818 3.23842L4.35103 12.3626H6.37301C6.89114 12.3626 7.32081 12.7923 7.32081 13.3104V23.1044H10.417V19.0099C10.417 17.0637 11.9461 15.4461 13.8923 15.3324H14.0692C16.1291 15.3324 17.7719 16.9879 17.7719 19.0099V23.1044H17.7846Z" fill="black"/>
</svg>
