<svg width="26" height="26" viewBox="0 0 26 26" fill="none" xmlns="http://www.w3.org/2000/svg">
<path fill-rule="evenodd" clip-rule="evenodd" d="M2 1.97263C2 1.43615 2.43615 1 2.97263 1H17.2437C18.8781 1 20.4454 1.64923 21.6011 2.80488C22.7567 3.96052 23.406 5.52791 23.406 7.16224V24.0275C23.406 24.2035 23.3582 24.3762 23.2677 24.5272C23.1773 24.6781 23.0476 24.8018 22.8924 24.8848C22.7373 24.9679 22.5625 25.0073 22.3867 24.9989C22.2109 24.9904 22.0407 24.9344 21.8942 24.8369L14.6496 20.0072L7.40501 24.8369C7.25852 24.9344 7.08831 24.9904 6.91251 24.9989C6.73671 25.0073 6.56192 24.9679 6.40676 24.8848C6.2516 24.8018 6.12188 24.6781 6.03144 24.5272C5.94101 24.3762 5.89323 24.2035 5.89321 24.0275V7.16224C5.89321 6.90428 5.99569 6.65689 6.17809 6.47449C6.36049 6.29208 6.60789 6.18961 6.86585 6.18961C7.1238 6.18961 7.3712 6.29208 7.5536 6.47449C7.73601 6.65689 7.83848 6.90428 7.83848 7.16224V22.2093L14.1091 18.0284C14.2689 17.9218 14.4568 17.8649 14.6489 17.8649C14.8411 17.8649 15.0289 17.9218 15.1888 18.0284L21.4607 22.2093V7.16224C21.4603 6.04406 21.0159 4.9718 20.2251 4.18126C19.4343 3.39071 18.3619 2.94661 17.2437 2.94661H2.97263C2.84479 2.94661 2.71821 2.9214 2.60011 2.87244C2.48202 2.82348 2.37474 2.75171 2.28441 2.66125C2.19407 2.5708 2.12245 2.46342 2.07365 2.34526C2.02485 2.2271 1.99983 2.10047 2 1.97263Z" fill="black"/>
</svg>
