<svg width="26" height="26" viewBox="0 0 26 26" fill="none" xmlns="http://www.w3.org/2000/svg">
<path d="M13 1C6.376 1 1 6.376 1 13C1 19.624 6.376 25 13 25C19.624 25 25 19.624 25 13C25 6.376 19.624 1 13 1ZM13 22.6C7.708 22.6 3.4 18.292 3.4 13C3.4 7.708 7.708 3.4 13 3.4C18.292 3.4 22.6 7.708 22.6 13C22.6 18.292 18.292 22.6 13 22.6ZM6.4 19.6L15.412 15.412L19.6 6.4L10.588 10.588L6.4 19.6ZM13 11.68C13.732 11.68 14.32 12.268 14.32 13C14.32 13.732 13.732 14.32 13 14.32C12.268 14.32 11.68 13.732 11.68 13C11.68 12.268 12.268 11.68 13 11.68Z" fill="black"/>
</svg>
