<svg width="24" height="24" fill="none" xmlns="http://www.w3.org/2000/svg">
    <path d="m20.86 14.93-.38-.39c-.26-.27-.5-.54-.72-.81-.19-.24-.36-.46-.5-.66-.19-.28-.27-.45-.3-.52-.03-.09-.15-.45-.23-1.43-.05-.62-.07-1.32-.06-2v-.25c-.01-3.65-3-6.62-6.68-6.62-3.68 0-6.67 2.98-6.67 6.64v.22c.01.7-.01 1.4-.06 2.01-.08.97-.19 1.34-.23 1.42-.03.08-.11.24-.3.52-.14.2-.3.42-.5.66-.21.28-.45.55-.71.82l-.24.25-.12.12c-.39.37-.61.88-.61 1.41v.78c0 .86.7 1.55 1.56 1.55h4.11c.35 1.76 1.91 3.1 3.78 3.1 1.87 0 3.43-1.33 3.78-3.1h4.11c.86 0 1.56-.7 1.56-1.55v-.78c-.01-.54-.23-1.06-.59-1.39ZM12 20.25c-1.03 0-1.9-.67-2.22-1.6h4.44c-.32.93-1.19 1.6-2.22 1.6Zm7.88-3.1L4.06 17.1v-.78c0-.12.05-.24.17-.35l.38-.38c.28-.3.55-.6.79-.89.23-.28.42-.54.59-.78.2-.3.35-.58.45-.81.15-.39.26-1.01.33-1.86.05-.66.07-1.4.06-2.17V8.9c0-2.84 2.33-5.15 5.18-5.15 2.85 0 5.18 2.3 5.18 5.12v.21c-.01.75.01 1.5.06 2.16.07.84.17 1.47.33 1.86.09.24.24.51.45.81.16.24.36.5.59.78.24.29.51.59.79.89l.41.41c.09.09.14.2.14.33l-.08.83Z" fill="#666" class="icon_svg-fill_as_stroke"/>
</svg>
